<svg width="26" height="21" viewBox="0 0 26 21" fill="none" xmlns="http://www.w3.org/2000/svg">
<path d="M4.66675 0.666656H10.0001L14.0001 4.66666H22.0001C23.0609 4.66666 24.0784 5.08808 24.8285 5.83823C25.5787 6.58837 26.0001 7.60579 26.0001 8.66666V16.6667C26.0001 17.7275 25.5787 18.7449 24.8285 19.4951C24.0784 20.2452 23.0609 20.6667 22.0001 20.6667H4.66675C3.60588 20.6667 2.58847 20.2452 1.83832 19.4951C1.08818 18.7449 0.666748 17.7275 0.666748 16.6667V4.66666C0.666748 3.60579 1.08818 2.58838 1.83832 1.83823C2.58847 1.08808 3.60588 0.666656 4.66675 0.666656ZM4.66675 1.99999C3.9595 1.99999 3.28123 2.28094 2.78113 2.78104C2.28103 3.28114 2.00008 3.95941 2.00008 4.66666V16.6667C2.00008 17.3739 2.28103 18.0522 2.78113 18.5523C3.28123 19.0524 3.9595 19.3333 4.66675 19.3333H22.0001C22.7073 19.3333 23.3856 19.0524 23.8857 18.5523C24.3858 18.0522 24.6667 17.3739 24.6667 16.6667V8.66666C24.6667 7.95941 24.3858 7.28114 23.8857 6.78104C23.3856 6.28094 22.7073 5.99999 22.0001 5.99999H13.4534L9.45341 1.99999H4.66675ZM7.33342 16.6667V14H4.66675V12.6667H7.33342V9.99999H8.66675V12.6667H11.3334V14H8.66675V16.6667H7.33342Z" fill="#539DDB"/>
</svg>
