<svg width="20" height="20" viewBox="0 0 20 20" fill="none" xmlns="http://www.w3.org/2000/svg">
<path d="M16.0424 16.2324V16.4289C16.0431 16.7659 15.975 17.0996 15.8418 17.4112C15.7087 17.7227 15.5131 18.006 15.2663 18.2447C15.0195 18.4835 14.7264 18.6731 14.4035 18.8026C14.0807 18.9322 13.7345 18.9993 13.3848 19H3.66875C3.31901 19.0007 2.97256 18.935 2.64917 18.8067C2.32577 18.6784 2.03178 18.49 1.78396 18.2523C1.53615 18.0145 1.33937 17.7321 1.20485 17.4211C1.07034 17.1101 1.00074 16.7766 1.00001 16.4396V6.65054C0.99921 6.31361 1.06731 5.97982 1.20041 5.66823C1.33351 5.35665 1.52901 5.07338 1.77575 4.83459C2.02249 4.59579 2.31563 4.40616 2.63844 4.27651C2.96124 4.14686 3.3074 4.07974 3.65713 4.07898H3.90305M9.83387 16.2319H16.8165C17.1027 16.2325 17.3861 16.1787 17.6507 16.0738C17.9153 15.9688 18.1558 15.8147 18.3586 15.6201C18.5613 15.4256 18.7223 15.1945 18.8324 14.9401C18.9424 14.6856 18.9994 14.4127 19 14.1371V3.10357C19.0006 2.8279 18.9448 2.55482 18.8359 2.29991C18.7269 2.04501 18.5669 1.81327 18.365 1.61794C18.1631 1.4226 17.9232 1.2675 17.6591 1.16147C17.395 1.05545 17.1118 1.00058 16.8256 1H6.08602C5.79988 0.999429 5.51642 1.05316 5.25183 1.15812C4.98724 1.26308 4.7467 1.41722 4.54395 1.61175C4.3412 1.80627 4.1802 2.03736 4.07015 2.29182C3.96009 2.54629 3.90314 2.81914 3.90255 3.09481V10.0954L9.83387 16.2319Z" stroke="white" stroke-linecap="round" stroke-linejoin="round"/>
</svg>
