<svg width="18" height="21" viewBox="0 0 18 21" fill="none" xmlns="http://www.w3.org/2000/svg">
<path d="M7.9695 1.39305C8.248 1.12974 8.61673 0.983032 9 0.983032C9.38327 0.983032 9.752 1.12974 10.0305 1.39305L17.2965 8.26154C17.7465 8.68604 18 9.27854 18 9.89654V18.2515C18 18.8483 17.7629 19.4206 17.341 19.8425C16.919 20.2645 16.3467 20.5015 15.75 20.5015H12.75C12.4544 20.5015 12.1617 20.4433 11.8886 20.3301C11.6155 20.217 11.3674 20.0511 11.1585 19.842C10.9495 19.6329 10.7838 19.3847 10.6708 19.1115C10.5579 18.8384 10.4998 18.5456 10.5 18.25V14.5C10.5 14.3011 10.421 14.1104 10.2803 13.9697C10.1397 13.8291 9.94891 13.75 9.75 13.75H8.25C8.05109 13.75 7.86032 13.8291 7.71967 13.9697C7.57902 14.1104 7.5 14.3011 7.5 14.5V18.25C7.5 18.8468 7.26295 19.4191 6.84099 19.841C6.41903 20.263 5.84674 20.5 5.25 20.5H2.25C1.65326 20.5 1.08097 20.263 0.65901 19.841C0.237053 19.4191 0 18.8468 0 18.25V9.89504C0 9.27704 0.255 8.68454 0.705 8.26004L7.9695 1.39305ZM9 2.48205L1.734 9.35204C1.66024 9.42197 1.60146 9.50617 1.56123 9.59951C1.52101 9.69286 1.50017 9.7934 1.5 9.89504V18.25C1.5 18.449 1.57902 18.6397 1.71967 18.7804C1.86032 18.921 2.05109 19 2.25 19H5.25C5.44891 19 5.63968 18.921 5.78033 18.7804C5.92098 18.6397 6 18.449 6 18.25V14.5C6 13.9033 6.23705 13.331 6.65901 12.9091C7.08097 12.4871 7.65326 12.25 8.25 12.25H9.75C10.3467 12.25 10.919 12.4871 11.341 12.9091C11.7629 13.331 12 13.9033 12 14.5V18.25C12 18.449 12.079 18.6397 12.2197 18.7804C12.3603 18.921 12.5511 19 12.75 19H15.75C15.9489 19 16.1397 18.921 16.2803 18.7804C16.421 18.6397 16.5 18.449 16.5 18.25V9.89504C16.5 9.79315 16.4793 9.69232 16.4391 9.5987C16.3988 9.50508 16.3399 9.42065 16.266 9.35054L9 2.48205Z" fill="#BBBABA"/>
</svg>
