<svg width="20" height="20" viewBox="0 0 20 20" fill="none" xmlns="http://www.w3.org/2000/svg">
<path d="M13.75 19H16.375C17.0712 19 17.7389 18.7234 18.2312 18.2312C18.7234 17.7389 19 17.0712 19 16.375V13.75M19 6.25V3.625C19 2.92881 18.7234 2.26113 18.2312 1.76884C17.7389 1.27656 17.0712 1 16.375 1H13.75M6.25 19H3.625C2.92881 19 2.26113 18.7234 1.76884 18.2312C1.27656 17.7389 1 17.0712 1 16.375V13.75M1 6.25V3.625C1 2.92881 1.27656 2.26113 1.76884 1.76884C2.26113 1.27656 2.92881 1 3.625 1H6.25" stroke="white" stroke-linecap="round" stroke-linejoin="round"/>
<path d="M7.11719 6H12.4541L12.6523 6.01074C13.0464 6.05014 13.4211 6.20207 13.7305 6.44922L13.8789 6.58105C14.0605 6.7635 14.2048 6.97965 14.3027 7.21777C14.3767 7.39787 14.4234 7.58809 14.4414 7.78125L14.4492 7.97559V12.0752C14.4497 12.3346 14.3985 12.5919 14.2979 12.8311C14.2224 13.0103 14.1206 13.1768 13.9961 13.3252L13.8633 13.4678L13.8613 13.4697C13.4826 13.8432 12.9723 14.0526 12.4404 14.0527H7.10938C6.6439 14.0527 6.19466 13.8919 5.83594 13.6016L5.6875 13.4697C5.50219 13.287 5.35483 13.069 5.25391 12.8291C5.17834 12.6494 5.1303 12.4598 5.11035 12.2666L5.09961 12.0723V7.98145C5.10065 7.71852 5.15366 7.45807 5.25586 7.21582C5.35804 6.97361 5.50776 6.75451 5.69531 6.57031C5.83598 6.43218 5.9957 6.31532 6.16992 6.22461L6.34863 6.14258C6.53157 6.06929 6.72429 6.02349 6.91992 6.00684L7.11719 6ZM7.37109 12.0273C7.37088 11.9407 7.38853 11.8543 7.42188 11.7744C7.45404 11.6974 7.50101 11.6277 7.55957 11.5684C7.69325 11.4469 7.86711 11.3789 8.04785 11.3789C8.22812 11.3789 8.4016 11.4466 8.53516 11.5674C8.59387 11.6273 8.64052 11.6979 8.67285 11.7754C8.68959 11.8155 8.7024 11.857 8.71094 11.8994L8.72461 12.0293C8.72486 12.2619 8.81703 12.4849 8.98145 12.6494C9.14267 12.8106 9.36032 12.9023 9.58789 12.9062V12.9072C9.59068 12.9073 9.59389 12.9062 9.59668 12.9062C9.59863 12.9063 9.60058 12.9072 9.60254 12.9072V12.9062C9.71956 12.9078 9.8359 12.887 9.94434 12.8428C10.057 12.7968 10.1587 12.7273 10.2432 12.6396C10.3277 12.5518 10.3929 12.4466 10.4346 12.332C10.4494 12.2912 10.4602 12.2494 10.4688 12.207C10.6332 12.3703 10.8551 12.4628 11.0869 12.4629H12.8994C13.1325 12.4629 13.3567 12.3699 13.5215 12.2051C13.6861 12.0403 13.7783 11.8169 13.7783 11.584C13.7783 11.3801 13.7073 11.1837 13.5791 11.0273L13.5215 10.9629L13.457 10.9043C13.3007 10.7761 13.1034 10.7051 12.8994 10.7051H12.4209C12.4436 10.6865 12.4654 10.6665 12.4863 10.6455C12.651 10.4808 12.743 10.2573 12.7432 10.0244C12.7432 9.82051 12.673 9.62315 12.5449 9.4668L12.4863 9.40234L12.4248 9.34766H12.8994C13.1325 9.34766 13.3567 9.25462 13.5215 9.08984C13.686 8.9251 13.7783 8.70161 13.7783 8.46875C13.7783 8.26483 13.7073 8.06844 13.5791 7.91211L13.5215 7.84766L13.457 7.78906C13.3007 7.6609 13.1034 7.58984 12.8994 7.58984H11.0869C10.8831 7.58994 10.6865 7.66103 10.5303 7.78906L10.4658 7.84766C10.3218 7.99177 10.2329 8.18084 10.2129 8.38184L10.209 8.46875L10.2129 8.55566C10.2328 8.75672 10.3218 8.94567 10.4658 9.08984C10.5289 9.15295 10.6011 9.20531 10.6787 9.24609C10.6262 9.27366 10.5766 9.30677 10.5303 9.34473L10.4658 9.40234C10.3025 9.56562 10.2107 9.78686 10.209 10.0176C10.2075 10.134 10.2287 10.2496 10.2725 10.3574C10.3164 10.4656 10.3823 10.5639 10.4648 10.6465C10.5284 10.7101 10.6011 10.7635 10.6807 10.8047C10.6275 10.8324 10.5771 10.8659 10.5303 10.9043L10.4658 10.9629C10.4099 11.0189 10.3627 11.0818 10.3242 11.1494C10.2316 10.9057 10.1026 10.6761 9.93652 10.4717L9.77734 10.2939L9.76953 10.2861L9.60547 10.1406C9.6461 10.0822 9.68476 10.0219 9.71875 9.95898C9.85296 9.7104 9.92991 9.43542 9.94434 9.1543L9.94629 9.0332C9.94464 8.52793 9.74314 8.04393 9.38574 7.68652C9.02696 7.32774 8.54059 7.12608 8.0332 7.12598C7.52567 7.12598 7.03857 7.32764 6.67969 7.68652C6.32118 8.04507 6.1195 8.53109 6.11914 9.03809C6.11806 9.36349 6.20107 9.68347 6.35938 9.96777C6.39689 10.0351 6.43827 10.1002 6.4834 10.1621L6.32715 10.3105C6.10078 10.5357 5.92117 10.8037 5.79883 11.0986C5.67659 11.3933 5.61386 11.7093 5.61426 12.0283L5.61816 12.1152C5.63814 12.3164 5.72789 12.5052 5.87207 12.6494C6.03684 12.8141 6.26018 12.9072 6.49316 12.9072C6.72611 12.9072 6.94954 12.8141 7.11426 12.6494C7.27895 12.4846 7.37109 12.2613 7.37109 12.0283V12.0273Z" fill="white" stroke="white"/>
</svg>
