<svg width="24" height="25" viewBox="0 0 24 25" fill="none" xmlns="http://www.w3.org/2000/svg">
<path d="M13.5 7C13.5 8.79021 12.7888 10.5071 11.523 11.773C10.2571 13.0388 8.54021 13.75 6.75 13.75C4.95979 13.75 3.2429 13.0388 1.97703 11.773C0.711159 10.5071 0 8.79021 0 7C0 5.20979 0.711159 3.4929 1.97703 2.22703C3.2429 0.961159 4.95979 0.25 6.75 0.25C8.54021 0.25 10.2571 0.961159 11.523 2.22703C12.7888 3.4929 13.5 5.20979 13.5 7ZM7.5 4C7.5 3.80109 7.42098 3.61032 7.28033 3.46967C7.13968 3.32902 6.94891 3.25 6.75 3.25C6.55109 3.25 6.36032 3.32902 6.21967 3.46967C6.07902 3.61032 6 3.80109 6 4V6.25H3.75C3.55109 6.25 3.36032 6.32902 3.21967 6.46967C3.07902 6.61032 3 6.80109 3 7C3 7.19891 3.07902 7.38968 3.21967 7.53033C3.36032 7.67098 3.55109 7.75 3.75 7.75H6V10C6 10.1989 6.07902 10.3897 6.21967 10.5303C6.36032 10.671 6.55109 10.75 6.75 10.75C6.94891 10.75 7.13968 10.671 7.28033 10.5303C7.42098 10.3897 7.5 10.1989 7.5 10V7.75H9.75C9.94891 7.75 10.1397 7.67098 10.2803 7.53033C10.421 7.38968 10.5 7.19891 10.5 7C10.5 6.80109 10.421 6.61032 10.2803 6.46967C10.1397 6.32902 9.94891 6.25 9.75 6.25H7.5V4ZM19.5 4.75H14.6895C14.5424 4.23196 14.345 3.72956 14.1 3.25H19.5C20.6935 3.25 21.8381 3.72411 22.682 4.56802C23.5259 5.41193 24 6.55653 24 7.75V19.75C24 20.9435 23.5259 22.0881 22.682 22.932C21.8381 23.7759 20.6935 24.25 19.5 24.25H7.5C6.30653 24.25 5.16193 23.7759 4.31802 22.932C3.47411 22.0881 3 20.9435 3 19.75V14.35C3.476 14.594 3.976 14.7905 4.5 14.9395V19.75C4.5 20.3095 4.653 20.833 4.92 21.28L11.9235 14.398C12.3442 13.9848 12.9103 13.7534 13.5 13.7534C14.0897 13.7534 14.6558 13.9848 15.0765 14.398L22.0815 21.28C22.3557 20.8168 22.5003 20.2883 22.5 19.75V7.75C22.5 6.95435 22.1839 6.19129 21.6213 5.62868C21.0587 5.06607 20.2956 4.75 19.5 4.75ZM19.5 10C19.5 10.2955 19.4418 10.5881 19.3287 10.861C19.2157 11.134 19.0499 11.3821 18.841 11.591C18.6321 11.7999 18.384 11.9657 18.111 12.0787C17.8381 12.1918 17.5455 12.25 17.25 12.25C16.9545 12.25 16.6619 12.1918 16.389 12.0787C16.116 11.9657 15.8679 11.7999 15.659 11.591C15.4501 11.3821 15.2843 11.134 15.1713 10.861C15.0582 10.5881 15 10.2955 15 10C15 9.40326 15.2371 8.83097 15.659 8.40901C16.081 7.98705 16.6533 7.75 17.25 7.75C17.8467 7.75 18.419 7.98705 18.841 8.40901C19.2629 8.83097 19.5 9.40326 19.5 10ZM18 10C18 9.80109 17.921 9.61032 17.7803 9.46967C17.6397 9.32902 17.4489 9.25 17.25 9.25C17.0511 9.25 16.8603 9.32902 16.7197 9.46967C16.579 9.61032 16.5 9.80109 16.5 10C16.5 10.1989 16.579 10.3897 16.7197 10.5303C16.8603 10.671 17.0511 10.75 17.25 10.75C17.4489 10.75 17.6397 10.671 17.7803 10.5303C17.921 10.3897 18 10.1989 18 10ZM5.982 22.339C6.44245 22.6085 6.96645 22.7504 7.5 22.75H19.5C20.055 22.75 20.5725 22.6 21.018 22.339L14.025 15.469C13.8848 15.3316 13.6963 15.2546 13.5 15.2546C13.3037 15.2546 13.1152 15.3316 12.975 15.469L5.982 22.339Z" fill="#BBBABA"/>
</svg>
