<svg width="18" height="18" viewBox="0 0 18 18" fill="none" xmlns="http://www.w3.org/2000/svg">
<path d="M9 5.29412C11.3684 5.29412 13.2632 7.41177 13.2632 10.0588C13.2632 12.7059 11.3684 14.8235 9 14.8235C6.63158 14.8235 4.73684 12.7059 4.73684 10.0588C4.73684 7.41177 6.63158 5.29412 9 5.29412ZM9 6.35294C8.1206 6.35294 7.27721 6.74338 6.65538 7.43837C6.03355 8.13336 5.68421 9.07596 5.68421 10.0588C5.68421 11.0417 6.03355 11.9843 6.65538 12.6793C7.27721 13.3743 8.1206 13.7647 9 13.7647C9.8794 13.7647 10.7228 13.3743 11.3446 12.6793C11.9664 11.9843 12.3158 11.0417 12.3158 10.0588C12.3158 9.07596 11.9664 8.13336 11.3446 7.43837C10.7228 6.74338 9.8794 6.35294 9 6.35294ZM2.84211 2.11765H4.73684L6.63158 0H11.3684L13.2632 2.11765H15.1579C15.9117 2.11765 16.6346 2.45231 17.1676 3.04801C17.7006 3.64372 18 4.45167 18 5.29412V14.8235C18 15.666 17.7006 16.4739 17.1676 17.0696C16.6346 17.6653 15.9117 18 15.1579 18H2.84211C2.08833 18 1.36543 17.6653 0.832433 17.0696C0.299435 16.4739 0 15.666 0 14.8235V5.29412C0 4.45167 0.299435 3.64372 0.832433 3.04801C1.36543 2.45231 2.08833 2.11765 2.84211 2.11765ZM7.02 1.05882L5.12526 3.17647H2.84211C2.33959 3.17647 1.85766 3.39958 1.50232 3.79672C1.14699 4.19385 0.947368 4.73248 0.947368 5.29412V14.8235C0.947368 15.3852 1.14699 15.9238 1.50232 16.3209C1.85766 16.7181 2.33959 16.9412 2.84211 16.9412H15.1579C15.6604 16.9412 16.1423 16.7181 16.4977 16.3209C16.853 15.9238 17.0526 15.3852 17.0526 14.8235V5.29412C17.0526 4.73248 16.853 4.19385 16.4977 3.79672C16.1423 3.39958 15.6604 3.17647 15.1579 3.17647H12.8747L10.98 1.05882H7.02Z" fill="white"/>
</svg>
