<svg width="23" height="25" viewBox="0 0 23 25" fill="none" xmlns="http://www.w3.org/2000/svg">
<path d="M16.2463 21.7725C16.246 21.9465 16.1859 22.1069 16.0852 22.2343L15.9906 22.3346L15.9605 22.3601C14.8794 23.2303 13.578 23.7834 12.2012 23.9579C10.8244 24.1324 9.42618 23.9214 8.16213 23.3485C6.89807 22.7757 5.81776 21.8633 5.04141 20.7129C4.26506 19.5626 3.82312 18.2193 3.76477 16.8328L3.75916 16.5072L3.77012 7.50725C3.77021 7.35565 3.7749 7.20409 3.78417 7.05277L1.29865 9.53524C1.17421 9.65911 1.01027 9.73539 0.835374 9.7508C0.66048 9.76621 0.48572 9.71977 0.341544 9.61958L0.236648 9.53395C0.112788 9.40952 0.0365081 9.24557 0.0210961 9.07068C0.00568588 8.89578 0.0521214 8.72102 0.152315 8.57685L0.237941 8.47195L3.9925 4.72652C4.11694 4.60266 4.28088 4.52638 4.45578 4.51097C4.63067 4.49556 4.80543 4.54199 4.94961 4.64219L5.0545 4.72781L8.79993 8.48238C8.93265 8.61482 9.01094 8.79217 9.01938 8.97948C9.02783 9.16679 8.9658 9.35046 8.84554 9.49431C8.72528 9.63815 8.5555 9.73174 8.36966 9.75661C8.18382 9.78149 7.9954 9.73586 7.84154 9.62871L7.73664 9.54308L5.28564 7.0846L5.27338 7.29458L5.27012 7.50908L5.25916 16.5091C5.25767 17.6421 5.57705 18.7525 6.18034 19.7116C6.78362 20.6707 7.64616 21.4393 8.66813 21.9286C9.6901 22.4179 10.8297 22.6079 11.9551 22.4764C13.0806 22.345 14.1458 21.8976 15.0275 21.186C15.1379 21.098 15.2708 21.043 15.4111 21.0273C15.5513 21.0115 15.6932 21.0357 15.8203 21.0969C15.9474 21.1582 16.0547 21.2541 16.1298 21.3736C16.2049 21.4931 16.2462 21.6313 16.2463 21.7725ZM22.2911 14.4988C22.415 14.6232 22.4913 14.7872 22.5067 14.9621C22.5221 15.137 22.4756 15.3117 22.3755 15.4559L22.2898 15.5608L18.5353 19.3062L18.4302 19.3916C18.3048 19.4779 18.1562 19.524 18.004 19.5238C17.8518 19.5236 17.7033 19.4772 17.5782 19.3906L17.4733 19.3049L13.7278 15.5504L13.6425 15.4453C13.5562 15.3199 13.5101 15.1713 13.5103 15.0191C13.5104 14.8669 13.5569 14.7184 13.6435 14.5933L13.7291 14.4884L13.8342 14.403C13.9596 14.3167 14.1082 14.2706 14.2604 14.2708C14.4126 14.271 14.5611 14.3175 14.6862 14.404L14.7911 14.4897L17.2421 16.9482L17.2544 16.7382L17.2592 16.5237L17.2701 7.52369C17.2716 6.38966 16.9516 5.27843 16.3473 4.31881C15.743 3.3592 14.8791 2.59048 13.8558 2.10177C12.8325 1.61306 11.6916 1.42436 10.5654 1.55754C9.43926 1.69073 8.37388 2.14034 7.49279 2.85428C7.33331 2.97363 7.13296 3.02475 6.9358 2.99638C6.73864 2.968 6.56082 2.86247 6.44147 2.703C6.38237 2.62404 6.33941 2.53421 6.31503 2.43864C6.29065 2.34307 6.28533 2.24363 6.29937 2.14601C6.32774 1.94885 6.43328 1.77104 6.59275 1.65168C7.67553 0.787544 8.9765 0.240187 10.3514 0.070311C11.7263 -0.0995652 13.1213 0.114678 14.3819 0.689283C15.6424 1.26389 16.7192 2.1764 17.4928 3.32562C18.2664 4.47485 18.7066 5.81588 18.7645 7.20001L18.7701 7.52551L18.7592 16.5255C18.759 16.6785 18.7543 16.83 18.7451 16.98L21.2306 14.4975L21.3357 14.4121C21.4801 14.3123 21.655 14.2663 21.8299 14.2821C22.0047 14.298 22.1685 14.3746 22.2926 14.4988" fill="#539DDB"/>
</svg>
