<svg width="21" height="22" viewBox="0 0 21 22" fill="none" xmlns="http://www.w3.org/2000/svg">
<path d="M3.13548 1.97727C2.80285 1.97727 2.48384 2.11615 2.24863 2.36336C2.01343 2.61057 1.88129 2.94585 1.88129 3.29545V6.26136C1.88129 6.52357 1.78219 6.77503 1.60578 6.96044C1.42938 7.14584 1.19012 7.25 0.940644 7.25C0.69117 7.25 0.451913 7.14584 0.275508 6.96044C0.0991032 6.77503 5.25728e-09 6.52357 0 6.26136V3.29545C0 2.42145 0.330344 1.58323 0.918361 0.965216C1.50638 0.347199 2.3039 0 3.13548 0H5.95741C6.20689 5.52551e-09 6.44615 0.104159 6.62255 0.289565C6.79896 0.47497 6.89806 0.726434 6.89806 0.988636C6.89806 1.25084 6.79896 1.5023 6.62255 1.68771C6.44615 1.87311 6.20689 1.97727 5.95741 1.97727H3.13548ZM3.13548 19.1136C2.80285 19.1136 2.48384 18.9748 2.24863 18.7276C2.01343 18.4803 1.88129 18.1451 1.88129 17.7955V14.8295C1.88129 14.5673 1.78219 14.3159 1.60578 14.1305C1.42938 13.9451 1.19012 13.8409 0.940644 13.8409C0.69117 13.8409 0.451913 13.9451 0.275508 14.1305C0.0991032 14.3159 5.25728e-09 14.5673 0 14.8295V17.7955C0 18.6695 0.330344 19.5077 0.918361 20.1257C1.50638 20.7437 2.3039 21.0909 3.13548 21.0909H5.95741C6.20689 21.0909 6.44615 20.9868 6.62255 20.8013C6.79896 20.6159 6.89806 20.3645 6.89806 20.1023C6.89806 19.8401 6.79896 19.5886 6.62255 19.4032C6.44615 19.2178 6.20689 19.1136 5.95741 19.1136H3.13548ZM18.1858 3.29545C18.1858 2.94585 18.0537 2.61057 17.8184 2.36336C17.5832 2.11615 17.2642 1.97727 16.9316 1.97727H14.1097C13.8602 1.97727 13.6209 1.87311 13.4445 1.68771C13.2681 1.5023 13.169 1.25084 13.169 0.988636C13.169 0.726434 13.2681 0.47497 13.4445 0.289565C13.6209 0.104159 13.8602 5.52551e-09 14.1097 0H16.9316C17.7632 0 18.5607 0.347199 19.1487 0.965216C19.7367 1.58323 20.0671 2.42145 20.0671 3.29545V6.26136C20.0671 6.52357 19.968 6.77503 19.7916 6.96044C19.6152 7.14584 19.3759 7.25 19.1264 7.25C18.877 7.25 18.6377 7.14584 18.4613 6.96044C18.2849 6.77503 18.1858 6.52357 18.1858 6.26136V3.29545ZM16.9316 19.1136C17.2642 19.1136 17.5832 18.9748 17.8184 18.7276C18.0537 18.4803 18.1858 18.1451 18.1858 17.7955V14.8295C18.1858 14.5673 18.2849 14.3159 18.4613 14.1305C18.6377 13.9451 18.877 13.8409 19.1264 13.8409C19.3759 13.8409 19.6152 13.9451 19.7916 14.1305C19.968 14.3159 20.0671 14.5673 20.0671 14.8295V17.7955C20.0671 18.6695 19.7367 19.5077 19.1487 20.1257C18.5607 20.7437 17.7632 21.0909 16.9316 21.0909H14.1097C13.8602 21.0909 13.6209 20.9868 13.4445 20.8013C13.2681 20.6159 13.169 20.3645 13.169 20.1023C13.169 19.8401 13.2681 19.5886 13.4445 19.4032C13.6209 19.2178 13.8602 19.1136 14.1097 19.1136H16.9316ZM5.01677 10.5455C5.01677 10.2833 5.11587 10.0318 5.29228 9.84638C5.46868 9.66098 5.70794 9.55682 5.95741 9.55682H14.1097C14.3591 9.55682 14.5984 9.66098 14.7748 9.84638C14.9512 10.0318 15.0503 10.2833 15.0503 10.5455C15.0503 10.8077 14.9512 11.0591 14.7748 11.2445C14.5984 11.4299 14.3591 11.5341 14.1097 11.5341H5.95741C5.70794 11.5341 5.46868 11.4299 5.29228 11.2445C5.11587 11.0591 5.01677 10.8077 5.01677 10.5455Z" fill="white"/>
</svg>
