<svg width="20" height="20" viewBox="0 0 20 20" fill="none" xmlns="http://www.w3.org/2000/svg">
<path d="M18.1 6V4C18.1 3.20435 17.8155 2.44129 17.3092 1.87868C16.8028 1.31607 16.1161 1 15.4 1H12.7M12.7 19H15.4C16.1161 19 16.8028 18.6839 17.3092 18.1213C17.8155 17.5587 18.1 16.7956 18.1 16V14M1.9 14V16C1.9 16.7956 2.18446 17.5587 2.69081 18.1213C3.19716 18.6839 3.88392 19 4.6 19H7.3M7.3 1H4.6C3.88392 1 3.19716 1.31607 2.69081 1.87868C2.18446 2.44129 1.9 3.20435 1.9 4V6M1 10H19" stroke="white" stroke-linecap="round" stroke-linejoin="round"/>
</svg>
